<svg width="200" height="200" viewBox="0 0 200 200" fill="none" xmlns="http://www.w3.org/2000/svg">
<rect width="200" height="200" fill="white"/>
<path d="M74.016 74.936H90.016V136.12C90.016 142.392 91.04 143.288 97.056 143.288C99.744 143.288 111.264 143.288 114.592 143.288C120.864 143.288 121.888 139.064 122.912 118.968C126.368 121.784 132.896 124.6 137.248 125.624C135.456 149.688 131.232 157.24 115.872 157.24C112.416 157.24 98.336 157.24 95.008 157.24C78.624 157.24 74.016 152.248 74.016 136.12V74.936ZM74.528 50.616L84.512 38.712C99.616 44.088 117.28 53.688 127.52 61.112L117.28 74.68C107.552 66.488 89.632 56.504 74.528 50.616ZM50.976 84.024L66.08 87.096C64.16 104.888 60.832 124.6 52.384 137.144L38.048 128.952C45.6 117.944 49.312 101.176 50.976 84.024ZM124.704 86.072L138.784 79.032C149.792 93.112 159.008 111.928 162.08 125.368L146.464 133.048C143.904 119.864 134.944 100.152 124.704 86.072Z" fill="black"/>
</svg>
