<svg width="50" height="25" viewBox="0 0 50 25" fill="none" xmlns="http://www.w3.org/2000/svg">
<g clip-path="url(#clip0_601_10)">
<rect x="1" y="1" width="48" height="23" rx="4" fill="white" stroke="black" stroke-width="2" stroke-linejoin="round"/>
<path d="M6.716 18.12C6.51067 18.12 6.33333 18.0453 6.184 17.896C6.03467 17.7467 5.96 17.5693 5.96 17.364V6.878C5.96 6.66333 6.03933 6.47667 6.198 6.318C6.35667 6.15933 6.54333 6.08 6.758 6.08H15.242C15.4567 6.08 15.6433 6.15933 15.802 6.318C15.9607 6.47667 16.04 6.66333 16.04 6.878V17.364C16.04 17.5693 15.9653 17.7467 15.816 17.896C15.6667 18.0453 15.4893 18.12 15.284 18.12H15.27C15.0647 18.12 14.892 18.05 14.752 17.91C14.612 17.77 14.542 17.5973 14.542 17.392C14.542 17.3173 14.5047 17.28 14.43 17.28H7.57C7.50467 17.28 7.472 17.3173 7.472 17.392C7.472 17.5973 7.39733 17.77 7.248 17.91C7.108 18.05 6.93533 18.12 6.73 18.12H6.716ZM7.472 7.494V10.784C7.472 10.868 7.50933 10.91 7.584 10.91H14.416C14.5 10.91 14.542 10.868 14.542 10.784V7.494C14.542 7.41 14.5 7.368 14.416 7.368H7.584C7.50933 7.368 7.472 7.41 7.472 7.494ZM7.472 12.296V15.908C7.472 15.9827 7.50933 16.02 7.584 16.02H14.416C14.5 16.02 14.542 15.9827 14.542 15.908V12.296C14.542 12.212 14.5 12.17 14.416 12.17H7.584C7.50933 12.17 7.472 12.212 7.472 12.296ZM19.61 16.146C19.4607 16.2767 19.288 16.3327 19.092 16.314C18.896 16.286 18.7467 16.188 18.644 16.02C18.532 15.8427 18.49 15.6467 18.518 15.432C18.546 15.208 18.6393 15.0213 18.798 14.872C20.842 12.9773 22.3867 11.0593 23.432 9.118C23.4507 9.09933 23.4507 9.08067 23.432 9.062C23.4227 9.034 23.404 9.02 23.376 9.02H19.456C19.2787 9.02 19.1247 8.95933 18.994 8.838C18.8727 8.71667 18.812 8.56267 18.812 8.376C18.812 8.18933 18.8727 8.03533 18.994 7.914C19.1247 7.78333 19.2787 7.718 19.456 7.718H24.174C24.2487 7.718 24.286 7.68067 24.286 7.606V6.276C24.286 6.07067 24.3607 5.89333 24.51 5.744C24.6593 5.59467 24.8367 5.52 25.042 5.52C25.2473 5.52 25.4247 5.59467 25.574 5.744C25.7233 5.89333 25.798 6.07067 25.798 6.276V7.606C25.798 7.68067 25.8353 7.718 25.91 7.718H30.628C30.8053 7.718 30.9547 7.78333 31.076 7.914C31.2067 8.03533 31.272 8.18933 31.272 8.376C31.272 8.56267 31.2067 8.71667 31.076 8.838C30.9547 8.95933 30.8053 9.02 30.628 9.02H26.708C26.68 9.02 26.6567 9.034 26.638 9.062C26.6287 9.08067 26.6333 9.09933 26.652 9.118C27.6973 11.0593 29.242 12.9773 31.286 14.872C31.4447 15.0213 31.538 15.208 31.566 15.432C31.594 15.6467 31.552 15.8427 31.44 16.02C31.3373 16.188 31.188 16.286 30.992 16.314C30.8053 16.3327 30.6373 16.2767 30.488 16.146C28.6773 14.4473 27.1327 12.506 25.854 10.322C25.8447 10.3127 25.8307 10.308 25.812 10.308C25.8027 10.308 25.798 10.3173 25.798 10.336V14.676C25.798 14.7507 25.8353 14.788 25.91 14.788H28.15C28.3273 14.788 28.4767 14.8533 28.598 14.984C28.7287 15.1053 28.794 15.2547 28.794 15.432C28.794 15.6093 28.7287 15.7587 28.598 15.88C28.4767 15.992 28.3273 16.048 28.15 16.048H25.91C25.8353 16.048 25.798 16.09 25.798 16.174V17.644C25.798 17.8493 25.7233 18.0267 25.574 18.176C25.4247 18.3253 25.2473 18.4 25.042 18.4C24.8367 18.4 24.6593 18.3253 24.51 18.176C24.3607 18.0267 24.286 17.8493 24.286 17.644V16.174C24.286 16.09 24.2487 16.048 24.174 16.048H21.934C21.7567 16.048 21.6027 15.992 21.472 15.88C21.3507 15.7587 21.29 15.6093 21.29 15.432C21.29 15.2547 21.3507 15.1053 21.472 14.984C21.6027 14.8533 21.7567 14.788 21.934 14.788H24.174C24.2487 14.788 24.286 14.7507 24.286 14.676V10.336C24.286 10.3173 24.2767 10.308 24.258 10.308C24.2487 10.2987 24.2393 10.2987 24.23 10.308C22.9327 12.5293 21.3927 14.4753 19.61 16.146ZM38.664 12.212C38.496 12.212 38.3513 12.1513 38.23 12.03C38.118 11.9087 38.062 11.764 38.062 11.596C38.062 11.428 38.118 11.2833 38.23 11.162C38.3513 11.0407 38.496 10.98 38.664 10.98H39.378C39.462 10.98 39.5133 10.9427 39.532 10.868L39.77 9.734C39.7793 9.706 39.77 9.678 39.742 9.65C39.7233 9.622 39.7 9.608 39.672 9.608H39.196C39.0373 9.608 38.8973 9.552 38.776 9.44C38.664 9.328 38.608 9.19267 38.608 9.034C38.608 8.87533 38.664 8.74 38.776 8.628C38.8973 8.516 39.0373 8.46 39.196 8.46H39.91C39.994 8.46 40.0453 8.42267 40.064 8.348L40.26 7.424C40.2787 7.34933 40.246 7.312 40.162 7.312H38.874C38.706 7.312 38.5613 7.25133 38.44 7.13C38.328 7.00867 38.272 6.864 38.272 6.696C38.272 6.528 38.328 6.38333 38.44 6.262C38.5613 6.14067 38.706 6.08 38.874 6.08H44.544C44.712 6.08 44.8567 6.14067 44.978 6.262C45.0993 6.38333 45.16 6.528 45.16 6.696C45.16 6.864 45.0993 7.00867 44.978 7.13C44.8567 7.25133 44.712 7.312 44.544 7.312H41.912C41.828 7.312 41.7767 7.34933 41.758 7.424L41.562 8.348C41.5433 8.42267 41.576 8.46 41.66 8.46H43.732C43.9467 8.46 44.1333 8.53933 44.292 8.698C44.4507 8.85667 44.53 9.04333 44.53 9.258V10.868C44.53 10.9427 44.572 10.98 44.656 10.98H44.894C45.062 10.98 45.2067 11.0407 45.328 11.162C45.4493 11.2833 45.51 11.428 45.51 11.596C45.51 11.764 45.4493 11.9087 45.328 12.03C45.2067 12.1513 45.062 12.212 44.894 12.212H38.664ZM41.282 9.734L41.03 10.868C41.0113 10.9427 41.044 10.98 41.128 10.98H42.934C43.018 10.98 43.06 10.9427 43.06 10.868V9.734C43.06 9.65 43.018 9.608 42.934 9.608H41.422C41.3473 9.608 41.3007 9.65 41.282 9.734ZM39.336 13.052H44.082C44.2967 13.052 44.4833 13.1313 44.642 13.29C44.8007 13.4393 44.88 13.6213 44.88 13.836V17.35C44.88 17.5553 44.8053 17.728 44.656 17.868C44.516 18.0173 44.3433 18.092 44.138 18.092H43.9C43.7693 18.092 43.6527 18.0407 43.55 17.938C43.4567 17.8447 43.41 17.7327 43.41 17.602C43.41 17.5553 43.3867 17.532 43.34 17.532H40.05C40.0033 17.532 39.98 17.5553 39.98 17.602C39.98 17.7327 39.9287 17.8447 39.826 17.938C39.7327 18.0407 39.6207 18.092 39.49 18.092H39.266C39.07 18.092 38.902 18.0173 38.762 17.868C38.622 17.728 38.552 17.56 38.552 17.364V13.836C38.552 13.6213 38.6267 13.4393 38.776 13.29C38.9347 13.1313 39.1213 13.052 39.336 13.052ZM43.41 16.244V14.354C43.41 14.27 43.368 14.228 43.284 14.228H40.092C40.0173 14.228 39.98 14.27 39.98 14.354V16.244C39.98 16.328 40.0173 16.37 40.092 16.37H43.284C43.368 16.37 43.41 16.328 43.41 16.244ZM33.694 7.312C33.526 7.312 33.3813 7.25133 33.26 7.13C33.148 7.00867 33.092 6.864 33.092 6.696C33.092 6.528 33.148 6.38333 33.26 6.262C33.3813 6.14067 33.526 6.08 33.694 6.08H37.026C37.194 6.08 37.334 6.14067 37.446 6.262C37.5673 6.38333 37.628 6.528 37.628 6.696C37.628 6.864 37.5673 7.00867 37.446 7.13C37.334 7.25133 37.194 7.312 37.026 7.312H33.694ZM37.39 8.068C37.5673 8.068 37.7167 8.13333 37.838 8.264C37.9593 8.38533 38.02 8.53467 38.02 8.712C38.02 8.88933 37.9593 9.03867 37.838 9.16C37.7167 9.272 37.5673 9.328 37.39 9.328H33.33C33.1527 9.328 33.0033 9.272 32.882 9.16C32.7607 9.03867 32.7 8.88933 32.7 8.712C32.7 8.53467 32.7607 8.38533 32.882 8.264C33.0033 8.13333 33.1527 8.068 33.33 8.068H37.39ZM33.792 11.33C33.6333 11.33 33.4933 11.2693 33.372 11.148C33.2507 11.0267 33.19 10.8867 33.19 10.728C33.19 10.5693 33.2507 10.434 33.372 10.322C33.4933 10.2007 33.6333 10.14 33.792 10.14H37.012C37.1707 10.14 37.306 10.2007 37.418 10.322C37.5393 10.434 37.6 10.5693 37.6 10.728C37.6 10.8867 37.5393 11.0267 37.418 11.148C37.306 11.2693 37.1707 11.33 37.012 11.33H33.792ZM33.792 13.332C33.6333 13.332 33.4933 13.2713 33.372 13.15C33.2507 13.0287 33.19 12.8887 33.19 12.73C33.19 12.5713 33.2507 12.4313 33.372 12.31C33.4933 12.1887 33.6333 12.128 33.792 12.128H37.012C37.1707 12.128 37.306 12.1887 37.418 12.31C37.5393 12.4313 37.6 12.5713 37.6 12.73C37.6 12.8887 37.5393 13.0287 37.418 13.15C37.306 13.2713 37.1707 13.332 37.012 13.332H33.792ZM33.092 17.63V14.928C33.092 14.7133 33.1667 14.5267 33.316 14.368C33.4747 14.2093 33.6613 14.13 33.876 14.13H36.872C37.0867 14.13 37.2733 14.2093 37.432 14.368C37.5907 14.5267 37.67 14.7133 37.67 14.928V16.972C37.67 17.1867 37.5907 17.3733 37.432 17.532C37.2733 17.6907 37.0867 17.77 36.872 17.77H34.562C34.5153 17.77 34.492 17.7933 34.492 17.84C34.492 17.9707 34.4407 18.0827 34.338 18.176C34.2447 18.2787 34.1327 18.33 34.002 18.33H33.792C33.596 18.33 33.428 18.26 33.288 18.12C33.1573 17.9893 33.092 17.826 33.092 17.63ZM34.492 15.446V16.468C34.492 16.5427 34.5293 16.58 34.604 16.58H36.228C36.3027 16.58 36.34 16.5427 36.34 16.468V15.446C36.34 15.362 36.3027 15.32 36.228 15.32H34.604C34.5293 15.32 34.492 15.362 34.492 15.446Z" fill="black"/>
</g>
<defs>
<clipPath id="clip0_601_10">
<rect width="50" height="25" fill="white"/>
</clipPath>
</defs>
</svg>
