<svg width="50" height="25" viewBox="0 0 50 25" fill="none" xmlns="http://www.w3.org/2000/svg">
<g clip-path="url(#clip0_604_17)">
<rect x="1" y="1" width="48" height="23" rx="4" fill="white" stroke="black" stroke-width="2" stroke-linejoin="round"/>
<path d="M14.6851 8.558V11.414H18.0451V12.716H14.6851V15.698H18.4651V17H13.0891V7.256H18.4651V8.558H14.6851ZM24.3229 9.16C24.9295 9.16 25.4709 9.286 25.9469 9.538C26.4322 9.79 26.8102 10.1633 27.0809 10.658C27.3515 11.1527 27.4869 11.75 27.4869 12.45V17H25.9049V12.688C25.9049 11.9973 25.7322 11.47 25.3869 11.106C25.0415 10.7327 24.5702 10.546 23.9729 10.546C23.3755 10.546 22.8995 10.7327 22.5449 11.106C22.1995 11.47 22.0269 11.9973 22.0269 12.688V17H20.4309V9.286H22.0269V10.168C22.2882 9.85067 22.6195 9.60333 23.0209 9.426C23.4315 9.24867 23.8655 9.16 24.3229 9.16ZM32.6307 9.16C33.228 9.16 33.7553 9.28133 34.2127 9.524C34.6793 9.75733 35.0433 10.0513 35.3047 10.406V9.286H36.9147V17.126C36.9147 17.8353 36.7653 18.4653 36.4667 19.016C36.168 19.576 35.734 20.0147 35.1647 20.332C34.6047 20.6493 33.9327 20.808 33.1487 20.808C32.1033 20.808 31.2353 20.5607 30.5447 20.066C29.854 19.5807 29.462 18.918 29.3687 18.078H30.9507C31.072 18.4793 31.3287 18.8013 31.7207 19.044C32.122 19.296 32.598 19.422 33.1487 19.422C33.7927 19.422 34.3107 19.226 34.7027 18.834C35.104 18.442 35.3047 17.8727 35.3047 17.126V15.838C35.034 16.202 34.6653 16.51 34.1987 16.762C33.7413 17.0047 33.2187 17.126 32.6307 17.126C31.9587 17.126 31.3427 16.958 30.7827 16.622C30.232 16.2767 29.7933 15.8007 29.4667 15.194C29.1493 14.578 28.9907 13.8827 28.9907 13.108C28.9907 12.3333 29.1493 11.6473 29.4667 11.05C29.7933 10.4527 30.232 9.99067 30.7827 9.664C31.3427 9.328 31.9587 9.16 32.6307 9.16ZM35.3047 13.136C35.3047 12.604 35.1927 12.142 34.9687 11.75C34.754 11.358 34.4693 11.0593 34.1147 10.854C33.76 10.6487 33.3773 10.546 32.9667 10.546C32.556 10.546 32.1733 10.6487 31.8187 10.854C31.464 11.05 31.1747 11.344 30.9507 11.736C30.736 12.1187 30.6287 12.576 30.6287 13.108C30.6287 13.64 30.736 14.1067 30.9507 14.508C31.1747 14.9093 31.464 15.2173 31.8187 15.432C32.1827 15.6373 32.5653 15.74 32.9667 15.74C33.3773 15.74 33.76 15.6373 34.1147 15.432C34.4693 15.2267 34.754 14.928 34.9687 14.536C35.1927 14.1347 35.3047 13.668 35.3047 13.136Z" fill="black"/>
</g>
<defs>
<clipPath id="clip0_604_17">
<rect width="50" height="25" fill="white"/>
</clipPath>
</defs>
</svg>
