<svg width="50" height="25" viewBox="0 0 50 25" fill="none" xmlns="http://www.w3.org/2000/svg">
<g clip-path="url(#clip0_601_12)">
<rect width="50" height="25" fill="white"/>
<path d="M9.88498 10.392C9.44631 10.392 9.08231 10.5133 8.79298 10.756C8.50364 10.9987 8.35898 11.2927 8.35898 11.638C8.35898 11.9927 8.50364 12.296 8.79298 12.548C9.08231 12.8 9.44631 12.926 9.88498 12.926C10.333 12.926 10.697 12.8 10.977 12.548C11.2663 12.296 11.411 11.9927 11.411 11.638C11.411 11.2927 11.2663 10.9987 10.977 10.756C10.697 10.5133 10.333 10.392 9.88498 10.392ZM9.88498 9.146C10.305 9.146 10.7016 9.21133 11.075 9.342C11.4483 9.47267 11.7703 9.65 12.041 9.874C12.321 10.098 12.5403 10.364 12.699 10.672C12.8576 10.9707 12.937 11.2927 12.937 11.638C12.937 11.9927 12.8576 12.324 12.699 12.632C12.5403 12.9307 12.321 13.192 12.041 13.416C11.7703 13.64 11.4483 13.8173 11.075 13.948C10.7016 14.0787 10.3003 14.144 9.87098 14.144C9.45098 14.144 9.05898 14.0787 8.69498 13.948C8.33098 13.8173 8.00898 13.64 7.72898 13.416C7.45831 13.192 7.24364 12.9307 7.08498 12.632C6.92631 12.324 6.84698 11.9927 6.84698 11.638C6.84698 11.2927 6.92631 10.9707 7.08498 10.672C7.24364 10.364 7.45831 10.098 7.72898 9.874C8.00898 9.65 8.33098 9.47267 8.69498 9.342C9.06831 9.21133 9.46498 9.146 9.88498 9.146ZM13.693 8.432C13.693 8.49733 13.6696 8.55333 13.623 8.6C13.5856 8.63733 13.539 8.656 13.483 8.656H6.06298C6.00698 8.656 5.95564 8.63267 5.90898 8.586C5.86231 8.53933 5.83898 8.48333 5.83898 8.418V7.592C5.83898 7.54533 5.86231 7.49867 5.90898 7.452C5.96498 7.40533 6.02098 7.382 6.07698 7.382H13.483C13.539 7.382 13.5856 7.40533 13.623 7.452C13.6696 7.48933 13.693 7.536 13.693 7.592V8.432ZM11.887 6.556C11.887 6.612 11.8636 6.66333 11.817 6.71C11.7796 6.75667 11.7236 6.78 11.649 6.78H7.99498C7.95764 6.78 7.91098 6.76133 7.85498 6.724C7.80831 6.68667 7.78498 6.63533 7.78498 6.57V5.744C7.78498 5.66933 7.80831 5.61333 7.85498 5.576C7.91098 5.53867 7.95764 5.52 7.99498 5.52H11.649C11.7143 5.52 11.7703 5.54333 11.817 5.59C11.8636 5.63667 11.887 5.69267 11.887 5.758V6.556ZM16.759 18.12C16.759 18.176 16.7356 18.218 16.689 18.246C16.6423 18.274 16.5956 18.288 16.549 18.288H9.15698C8.73698 18.288 8.45231 18.2133 8.30298 18.064C8.15364 17.9147 8.07898 17.658 8.07898 17.294V15.124C8.07898 15.0773 8.10231 15.0307 8.14898 14.984C8.19564 14.9373 8.24231 14.914 8.28898 14.914H9.47898C9.54431 14.914 9.59564 14.9373 9.63298 14.984C9.67964 15.0307 9.70298 15.0773 9.70298 15.124V16.72C9.70298 16.8133 9.72164 16.874 9.75898 16.902C9.79631 16.93 9.86164 16.944 9.95498 16.944H16.549C16.5956 16.944 16.6423 16.9627 16.689 17C16.7356 17.0373 16.759 17.0793 16.759 17.126V18.12ZM18.313 11.078C18.313 11.1247 18.2896 11.1667 18.243 11.204C18.2056 11.232 18.159 11.246 18.103 11.246H16.213V15.278C16.213 15.3993 16.1523 15.46 16.031 15.46H14.785C14.6636 15.46 14.603 15.3993 14.603 15.278V5.394C14.603 5.27267 14.6636 5.212 14.785 5.212H16.031C16.1523 5.212 16.213 5.27267 16.213 5.394V9.902H18.103C18.159 9.902 18.2056 9.92067 18.243 9.958C18.2896 9.99533 18.313 10.0373 18.313 10.084V11.078ZM29.393 6.472C29.393 6.68667 29.3837 6.93867 29.365 7.228C29.3557 7.508 29.3323 7.81133 29.295 8.138C29.267 8.45533 29.2297 8.782 29.183 9.118C29.1363 9.454 29.0803 9.78067 29.015 10.098H31.073C31.1197 10.098 31.1663 10.126 31.213 10.182C31.2597 10.2287 31.283 10.2753 31.283 10.322V11.232C31.283 11.2787 31.2597 11.3253 31.213 11.372C31.1663 11.4187 31.1197 11.442 31.073 11.442H25.669V13.528H28.399C28.7817 13.528 29.029 13.5933 29.141 13.724C29.2623 13.8547 29.323 14.1253 29.323 14.536V18.302C29.323 18.3487 29.2997 18.3907 29.253 18.428C29.2157 18.4747 29.1737 18.498 29.127 18.498H27.909C27.853 18.498 27.8017 18.4747 27.755 18.428C27.7177 18.3907 27.699 18.3487 27.699 18.302V15.082C27.699 14.9887 27.6803 14.928 27.643 14.9C27.6057 14.872 27.5357 14.858 27.433 14.858H20.545C20.4983 14.858 20.4517 14.844 20.405 14.816C20.3583 14.7787 20.335 14.7367 20.335 14.69V13.696C20.335 13.64 20.3583 13.598 20.405 13.57C20.4517 13.542 20.4983 13.528 20.545 13.528H24.059V11.442H18.879C18.823 11.442 18.7763 11.4187 18.739 11.372C18.7017 11.3253 18.683 11.2787 18.683 11.232V10.322C18.683 10.1727 18.7483 10.098 18.879 10.098H27.531C27.615 9.64067 27.685 9.16933 27.741 8.684C27.797 8.18933 27.825 7.662 27.825 7.102C27.825 6.97133 27.7923 6.892 27.727 6.864C27.6617 6.82667 27.5637 6.808 27.433 6.808H20.909C20.8623 6.808 20.8157 6.78933 20.769 6.752C20.7223 6.71467 20.699 6.67267 20.699 6.626V5.66C20.699 5.604 20.7223 5.562 20.769 5.534C20.8157 5.506 20.8623 5.492 20.909 5.492H28.469C28.7677 5.492 28.9963 5.57133 29.155 5.73C29.3137 5.87933 29.393 6.12667 29.393 6.472ZM36.091 15.292C35.559 15.292 35.0783 15.18 34.649 14.956C34.229 14.7227 33.8697 14.4053 33.571 14.004C33.2817 13.5933 33.0577 13.1033 32.899 12.534C32.7403 11.9647 32.661 11.3393 32.661 10.658C32.661 9.958 32.7403 9.32333 32.899 8.754C33.0577 8.18467 33.2817 7.69933 33.571 7.298C33.8697 6.89667 34.229 6.58867 34.649 6.374C35.0783 6.15 35.559 6.038 36.091 6.038C36.5857 6.038 37.0337 6.13133 37.435 6.318C37.8363 6.50467 38.1817 6.77067 38.471 7.116C38.7697 7.452 39.0077 7.86267 39.185 8.348C39.3623 8.83333 39.4743 9.37467 39.521 9.972H41.607V5.394C41.607 5.27267 41.6677 5.212 41.789 5.212H43.035C43.1563 5.212 43.217 5.27267 43.217 5.394V18.316C43.217 18.4373 43.1563 18.498 43.035 18.498H41.789C41.6677 18.498 41.607 18.4373 41.607 18.316V11.316H39.521C39.4743 11.9227 39.3623 12.4733 39.185 12.968C39.0077 13.4533 38.7697 13.8687 38.471 14.214C38.1817 14.5593 37.8363 14.8253 37.435 15.012C37.0337 15.1987 36.5857 15.292 36.091 15.292ZM37.967 10.658C37.967 10.2287 37.925 9.82267 37.841 9.44C37.757 9.048 37.6357 8.70733 37.477 8.418C37.3183 8.12867 37.1223 7.9 36.889 7.732C36.6557 7.55467 36.3897 7.466 36.091 7.466C35.8017 7.466 35.5403 7.55467 35.307 7.732C35.083 7.9 34.8917 8.12867 34.733 8.418C34.5743 8.70733 34.453 9.048 34.369 9.44C34.285 9.82267 34.243 10.2287 34.243 10.658C34.243 11.078 34.285 11.484 34.369 11.876C34.453 12.2587 34.5743 12.5993 34.733 12.898C34.8917 13.1873 35.083 13.4207 35.307 13.598C35.5403 13.7753 35.8017 13.864 36.091 13.864C36.3897 13.864 36.6557 13.7753 36.889 13.598C37.1223 13.4207 37.3183 13.1873 37.477 12.898C37.6357 12.5993 37.757 12.2587 37.841 11.876C37.925 11.484 37.967 11.078 37.967 10.658Z" fill="black"/>
<rect x="1" y="1" width="48" height="23" rx="4" stroke="black" stroke-width="2" stroke-linejoin="round"/>
</g>
<defs>
<clipPath id="clip0_601_12">
<rect width="50" height="25" fill="white"/>
</clipPath>
</defs>
</svg>
