<svg width="50" height="25" viewBox="0 0 50 25" fill="none" xmlns="http://www.w3.org/2000/svg">
<g clip-path="url(#clip0_604_17)">
<rect width="50" height="25" fill="white"/>
<path d="M15.0071 9.09V11.078H18.2131V12.926H15.0071V15.082H18.6331V17H12.6131V7.172H18.6331V9.09H15.0071ZM24.9473 9.104C25.862 9.104 26.59 9.40267 27.1313 10C27.682 10.588 27.9573 11.4 27.9573 12.436V17H25.5773V12.758C25.5773 12.2353 25.442 11.8293 25.1713 11.54C24.9007 11.2507 24.5367 11.106 24.0793 11.106C23.622 11.106 23.258 11.2507 22.9873 11.54C22.7167 11.8293 22.5813 12.2353 22.5813 12.758V17H20.1873V9.188H22.5813V10.224C22.824 9.87867 23.1507 9.608 23.5613 9.412C23.972 9.20667 24.434 9.104 24.9473 9.104ZM32.5889 9.076C33.1396 9.076 33.6203 9.188 34.0309 9.412C34.4509 9.636 34.7729 9.93 34.9969 10.294V9.188H37.3909V16.986C37.3909 17.7047 37.2463 18.3533 36.9569 18.932C36.6769 19.52 36.2429 19.9867 35.6549 20.332C35.0763 20.6773 34.3529 20.85 33.4849 20.85C32.3276 20.85 31.3896 20.5747 30.6709 20.024C29.9523 19.4827 29.5416 18.7453 29.4389 17.812H31.8049C31.8796 18.1107 32.0569 18.344 32.3369 18.512C32.6169 18.6893 32.9623 18.778 33.3729 18.778C33.8676 18.778 34.2596 18.6333 34.5489 18.344C34.8476 18.064 34.9969 17.6113 34.9969 16.986V15.88C34.7636 16.244 34.4416 16.5427 34.0309 16.776C33.6203 17 33.1396 17.112 32.5889 17.112C31.9449 17.112 31.3616 16.9487 30.8389 16.622C30.3163 16.286 29.9009 15.8147 29.5929 15.208C29.2943 14.592 29.1449 13.8827 29.1449 13.08C29.1449 12.2773 29.2943 11.5727 29.5929 10.966C29.9009 10.3593 30.3163 9.89267 30.8389 9.566C31.3616 9.23933 31.9449 9.076 32.5889 9.076ZM34.9969 13.094C34.9969 12.4967 34.8289 12.0253 34.4929 11.68C34.1663 11.3347 33.7649 11.162 33.2889 11.162C32.8129 11.162 32.4069 11.3347 32.0709 11.68C31.7443 12.016 31.5809 12.4827 31.5809 13.08C31.5809 13.6773 31.7443 14.1533 32.0709 14.508C32.4069 14.8533 32.8129 15.026 33.2889 15.026C33.7649 15.026 34.1663 14.8533 34.4929 14.508C34.8289 14.1627 34.9969 13.6913 34.9969 13.094Z" fill="black"/>
<rect x="1" y="1" width="48" height="23" rx="4" stroke="black" stroke-width="2" stroke-linejoin="round"/>
</g>
<defs>
<clipPath id="clip0_604_17">
<rect width="50" height="25" fill="white"/>
</clipPath>
</defs>
</svg>
